<?xml version="1.0" encoding="utf-8"?>
<!-- Generator: Adobe Illustrator 16.0.3, SVG Export Plug-In . SVG Version: 6.00 Build 0)  -->
<!DOCTYPE svg PUBLIC "-//W3C//DTD SVG 1.1//EN" "http://www.w3.org/Graphics/SVG/1.1/DTD/svg11.dtd">
<svg version="1.1" id="Capa_1" xmlns="http://www.w3.org/2000/svg" xmlns:xlink="http://www.w3.org/1999/xlink" x="0px" y="0px"
	 width="283.46px" height="283.46px" viewBox="0 0 283.46 283.46" enable-background="new 0 0 283.46 283.46" xml:space="preserve">
<g>
	<path fill="none" stroke="#000000" stroke-width="0.5462" stroke-miterlimit="10" d="M145.477,1.466
		c-1.245-0.032-2.494-0.051-3.747-0.051c-1.272,0-2.539,0.02-3.803,0.053C140.442,1.468,142.96,1.466,145.477,1.466z"/>
	<path d="M277.695,106.937c-10.609-41.576-39.779-75.728-78.169-93.104c-16.554-7.491-34.82-11.864-54.05-12.367
		c-2.517,0-5.034,0.002-7.55,0.002c-19.174,0.511-37.387,4.864-53.897,12.323C35.316,35.795,1.415,84.803,1.415,141.729
		c0,77.495,62.822,140.315,140.314,140.315c1.231,0,2.458-0.017,3.682-0.048c0.313-0.507,0.452-1.218,0.45-2.185
		c-0.056-34.743-0.058-69.488,0.006-104.235c0.004-2.582-0.888-3.456-3.428-3.396c-5.59,0.131-11.188-0.052-16.782,0.077
		c-2.48,0.059-3.511-0.663-3.479-3.319c0.118-10.208,0.101-20.417,0.012-30.624c-0.022-2.454,0.909-3.282,3.295-3.236
		c5.495,0.105,10.997-0.089,16.486,0.079c2.895,0.088,3.919-0.812,3.925-3.84c0.027-10.985-0.582-21.983,0.458-32.951
		c1.319-13.931,7.4-24.623,20.705-30.436c6.663-2.911,13.661-4.406,20.861-4.546c11.677-0.229,23.358-0.042,35.039-0.166
		c2.728-0.03,3.577,0.998,3.55,3.636c-0.103,10.108-0.029,20.22-0.047,30.329c-0.005,3.662-0.2,3.796-3.811,3.882
		c-7.45,0.178-14.91-0.412-22.353,0.396c-6.274,0.682-8.628,3.138-8.699,9.544c-0.075,6.87,0.091,13.744-0.077,20.611
		c-0.069,2.787,1.026,3.553,3.617,3.527c9.129-0.095,18.258-0.046,27.386-0.03c3.73,0.006,4.121,0.358,3.79,4.054
		c-0.882,9.765-1.936,19.514-2.721,29.285c-0.209,2.579-1.202,3.303-3.65,3.271c-8.243-0.111-16.49,0.049-24.732-0.089
		c-2.845-0.048-3.689,0.967-3.684,3.76c0.069,32.513,0.067,65.03,0.006,97.542c42.281-16.057,74.787-51.954,86.14-96.33
		c2.852-11.15,4.37-22.837,4.37-34.877C282.045,129.72,280.534,118.062,277.695,106.937z"/>
</g>
</svg>
