<?xml version="1.0" encoding="utf-8"?>
<!-- Generator: Adobe Illustrator 16.0.3, SVG Export Plug-In . SVG Version: 6.00 Build 0)  -->
<!DOCTYPE svg PUBLIC "-//W3C//DTD SVG 1.1//EN" "http://www.w3.org/Graphics/SVG/1.1/DTD/svg11.dtd">
<svg version="1.1" id="Capa_1" xmlns="http://www.w3.org/2000/svg" xmlns:xlink="http://www.w3.org/1999/xlink" x="0px" y="0px"
	 width="283.46px" height="283.46px" viewBox="0 0 283.46 283.46" enable-background="new 0 0 283.46 283.46" xml:space="preserve">
<g>
	<path d="M280.042,118.04c0-0.001,0-0.003,0-0.005c-9.95-58.5-56.104-104.659-114.602-114.616
		c-7.709-1.312-15.628-2.004-23.711-2.004c-8.074,0-15.986,0.692-23.688,2.001C60.105,13.268,14.271,58.626,3.717,116.318
		c-1.508,8.243-2.303,16.734-2.303,25.412c0,8.653,0.79,17.122,2.29,25.343C14.219,224.711,59.947,270.055,117.783,280
		c7.783,1.34,15.782,2.045,23.946,2.045c8.138,0,16.109-0.701,23.865-2.031C224.028,270,270.115,223.857,280.046,165.395
		c0.002,0,0.002-0.002,0.002-0.004c1.306-7.693,1.998-15.596,1.998-23.661C282.046,133.654,281.354,125.742,280.042,118.04z
		 M244.14,161.205c0.095,8.678-0.108,17.352-0.712,26.004c-0.717,10.314-2.885,20.281-8.222,29.291
		c-7.281,12.295-17.939,20.225-31.648,24.146c-5.979,1.711-12.083,2.475-18.269,2.877c-14.638,0.953-29.291,0.492-43.937,0.576
		c-10.757,0-21.516,0.16-32.267-0.051c-8.088-0.158-16.199-0.418-24.169-2.104c-10.541-2.227-19.975-6.6-27.81-14.16
		c-8.866-8.561-13.724-19.141-15.887-31.109c-1.057-5.844-1.395-11.752-1.57-17.672c-0.647-21.971-0.399-43.952-0.233-65.927
		c0.075-9.798,0.213-19.644,2.394-29.292c2.464-10.902,7.323-20.492,15.495-28.273c8.333-7.934,18.381-12.303,29.579-14.312
		c5.896-1.059,11.854-1.385,17.825-1.561c22.547-0.665,45.097-0.373,67.645-0.209c9.175,0.068,18.391,0.325,27.417,2.397
		c16.886,3.875,29.655,13.139,37.394,28.832c3.556,7.211,5.379,14.949,6,22.938C244.917,116.11,243.892,138.667,244.14,161.205z"/>
	<path d="M225.517,100.304c-0.311-5.31-0.837-10.561-2.32-15.679c-1.845-6.371-5.042-11.925-9.966-16.448
		c-5.294-4.864-11.632-7.561-18.581-8.928c-8.399-1.653-16.95-1.68-25.448-1.792c-16.678-0.218-33.358-0.126-50.037-0.06
		c-8.825,0.035-17.654,0.23-26.438,1.226c-5.684,0.644-11.15,2.154-16.123,4.993c-9.857,5.627-15.252,14.407-17.367,25.376
		c-1.641,8.512-1.715,17.162-1.776,25.761c-0.143,19.532-0.386,39.068,0.154,58.599c0.159,5.713,0.318,11.418,0.979,17.098
		c0.674,5.785,2.132,11.367,5.035,16.432c5.932,10.348,15.256,15.689,26.765,17.619c7.658,1.285,15.421,1.422,23.139,1.473
		c21.766,0.146,43.537,0.467,65.302-0.246c4.714-0.156,9.442-0.361,14.111-1.186c7.939-1.402,15.181-4.227,21.066-9.984
		c6.563-6.412,9.525-14.471,10.804-23.309c0.983-6.799,1.034-13.668,1.179-20.512c0.205-9.66,0.053-19.328,0.053-28.994
		C225.996,127.93,226.325,114.112,225.517,100.304z M141.702,194.234c-29.056-0.002-52.488-23.482-52.482-52.59
		c0.005-29.007,23.547-52.447,52.654-52.428c28.963,0.019,52.361,23.487,52.363,52.524
		C194.241,170.84,170.823,194.238,141.702,194.234z M196.414,99.161c-6.825-0.007-12.117-5.317-12.117-12.16
		c0-6.635,5.438-12.09,12.073-12.114c6.719-0.024,12.201,5.434,12.197,12.148C208.565,93.863,203.25,99.167,196.414,99.161z"/>
	<path d="M142.006,107.268c-19.023-0.047-34.71,15.453-34.738,34.327c-0.028,18.841,15.48,34.554,34.145,34.599
		c19.175,0.043,34.744-15.355,34.781-34.395C176.226,122.972,160.727,107.314,142.006,107.268z"/>
</g>
</svg>
