<?xml version="1.0" encoding="utf-8"?>
<!-- Generator: Adobe Illustrator 16.0.3, SVG Export Plug-In . SVG Version: 6.00 Build 0)  -->
<!DOCTYPE svg PUBLIC "-//W3C//DTD SVG 1.1//EN" "http://www.w3.org/Graphics/SVG/1.1/DTD/svg11.dtd">
<svg version="1.1" id="Capa_1" xmlns="http://www.w3.org/2000/svg" xmlns:xlink="http://www.w3.org/1999/xlink" x="0px" y="0px"
	 width="283.46px" height="283.46px" viewBox="0 0 283.46 283.46" enable-background="new 0 0 283.46 283.46" xml:space="preserve">
<path d="M278.554,110.514c-0.183-0.806-0.378-1.607-0.574-2.409c-12.407-50.44-52.086-90.148-102.51-102.596
	c-0.845-0.208-1.69-0.414-2.541-0.607c-10.034-2.278-20.475-3.486-31.199-3.486c-10.747,0-21.21,1.213-31.264,3.5
	c-0.83,0.189-1.654,0.392-2.48,0.594C56.754,18.159,16.611,58.946,4.9,110.541c-2.277,10.031-3.485,20.47-3.485,31.19
	c0,10.72,1.208,21.157,3.485,31.188c11.903,52.441,53.176,93.724,105.613,105.636c10.04,2.28,20.486,3.49,31.217,3.49
	s21.177-1.21,31.216-3.49c51.623-11.729,92.42-51.92,105.033-103.201c0.196-0.799,0.39-1.597,0.572-2.399
	c2.283-10.043,3.493-20.49,3.493-31.224C282.045,131,280.835,120.554,278.554,110.514z M233.047,90.91
	c-2.027,3.843-4.715,7.22-8.305,9.631c-4.328,2.905-5.618,6.6-5.935,11.85c-1.355,22.421-7.738,43.335-21.239,61.6
	c-17.33,23.451-41.096,35.657-69.649,39.621c-23.26,3.229-44.646-1.792-64.708-13.506c-0.596-0.346-1.396-0.485-1.602-1.381
	c0.873-0.777,1.893-0.357,2.835-0.316c16.253,0.655,31.138-3.561,44.665-12.561c0.931-0.619,2.57-1.259,2.294-2.395
	c-0.286-1.176-2.018-0.827-3.137-1.022c-13.429-2.33-22.893-9.721-28.343-22.211c-1.145-2.62-0.804-3.062,2.071-2.705
	c3.278,0.407,6.455-0.402,9.822-0.323c-0.382-1.328-1.346-1.272-2.032-1.537c-14.904-5.749-22.958-16.653-24.595-32.461
	c-0.213-2.053,0.093-2.808,2.256-1.711c3.325,1.683,6.843,2.626,10.752,2.146c-4.23-3.893-7.383-8.398-9.524-13.57
	c-4.3-10.383-5.33-20.928-1.199-31.632c1.196-3.1,1.608-3.15,3.995-0.713c9.873,10.069,20.633,18.963,33.381,25.223
	c11.153,5.476,22.969,8.64,35.282,10.027c3.318,0.374,3.773-0.097,3.371-2.984c-2.001-14.312,3.058-25.656,14.929-33.656
	c11.014-7.421,23.025-9.714,35.856-5.047c3.989,1.451,7.572,3.647,10.375,6.863c1.66,1.902,3.446,2.304,5.831,1.756
	c5.636-1.298,10.843-3.677,16.091-5.989c0.854-0.375,1.918-1.335,2.74-0.464c0.775,0.824-0.146,1.886-0.505,2.767
	c-2.176,5.325-5.59,9.76-9.887,13.549c-0.659,0.581-1.584,0.938-1.793,1.958c0.562,0.832,1.321,0.404,1.975,0.28
	c4.123-0.772,8.152-1.886,12.112-3.28c0.782-0.275,1.771-1.241,2.455-0.326C234.239,89.129,233.46,90.124,233.047,90.91z"/>
</svg>
